<svg xmlns="http://www.w3.org/2000/svg" width="32" height="32" viewBox="0 0 32 32" fill="none">
  <path fill-rule="evenodd" clip-rule="evenodd" d="M17 7C17 5.34315 18.3431 4 20 4H25C26.6569 4 28 5.34315 28 7V12C28 13.6569 26.6569 15 25 15H20C18.3431 15 17 13.6569 17 12V7ZM20 6C19.4477 6 19 6.44772 19 7V12C19 12.5523 19.4477 13 20 13H25C25.5523 13 26 12.5523 26 12V7C26 6.44772 25.5523 6 25 6H20ZM22.5 26.5C21.9477 26.5 21.5 26.0523 21.5 25.5V23.5H19.5C18.9477 23.5 18.5 23.0523 18.5 22.5C18.5 21.9477 18.9477 21.5 19.5 21.5H21.5V19.5C21.5 18.9477 21.9477 18.5 22.5 18.5C23.0523 18.5 23.5 18.9477 23.5 19.5V21.5H25.5C26.0523 21.5 26.5 21.9477 26.5 22.5C26.5 23.0523 26.0523 23.5 25.5 23.5H23.5V25.5C23.5 26.0523 23.0523 26.5 22.5 26.5ZM4 20C4 18.3431 5.34315 17 7 17H12C13.6569 17 15 18.3431 15 20V25C15 26.6569 13.6569 28 12 28H7C5.34315 28 4 26.6569 4 25V20ZM7 19C6.44772 19 6 19.4477 6 20V25C6 25.5523 6.44772 26 7 26H12C12.5523 26 13 25.5523 13 25V20C13 19.4477 12.5523 19 12 19H7ZM7 4C5.34315 4 4 5.34315 4 7V12C4 13.6569 5.34315 15 7 15H12C13.6569 15 15 13.6569 15 12V7C15 5.34315 13.6569 4 12 4H7ZM6 7C6 6.44772 6.44772 6 7 6H12C12.5523 6 13 6.44772 13 7V12C13 12.5523 12.5523 13 12 13H7C6.44772 13 6 12.5523 6 12V7Z" fill="#939393"/>
</svg>