<svg xmlns="http://www.w3.org/2000/svg" width="32" height="32" viewBox="0 0 32 32" fill="none">
  <path fill-rule="evenodd" clip-rule="evenodd" d="M4 5C2.34315 5 1 6.34315 1 8V24C1 25.6569 2.34315 27 4 27H28C29.6569 27 31 25.6569 31 24V8C31 6.34315 29.6569 5 28 5H4ZM3 8C3 7.44772 3.44772 7 4 7H28C28.5523 7 29 7.44772 29 8V11L3 11V8ZM3 13L29 13V24C29 24.5523 28.5523 25 28 25H4C3.44772 25 3 24.5523 3 24V13ZM7 20C6.44772 20 6 20.4477 6 21C6 21.5523 6.44772 22 7 22H13C13.5523 22 14 21.5523 14 21C14 20.4477 13.5523 20 13 20L7 20ZM25 20H23.5C22.9477 20 22.5 20.4477 22.5 21C22.5 21.5523 22.9477 22 23.5 22H25C25.5523 22 26 21.5523 26 21C26 20.4477 25.5523 20 25 20Z" fill="#939393"/>
</svg>