<svg width="24" height="24" viewBox="0 0 24 24" fill="none" xmlns="http://www.w3.org/2000/svg">
<path fill-rule="evenodd" clip-rule="evenodd" d="M11.999 19.9995C16.4173 19.9995 19.999 16.4178 19.999 11.9995C19.999 7.58123 16.4173 3.99951 11.999 3.99951C7.58074 3.99951 3.99902 7.58123 3.99902 11.9995V12.0134V12.0274V12.0414V12.0554V12.0695V12.0836V12.0978V12.112V12.1263V12.1406V12.1549V12.1693V12.1838V12.1982V12.2127V12.2273V12.2419V12.2565V12.2712V12.2859V12.3007V12.3155V12.3303V12.3452V12.3601V12.375V12.39V12.4051V12.4201V12.4353V12.4504V12.4656V12.4808V12.4961V12.5114V12.5267V12.5421V12.5575V12.573V12.5885V12.604V12.6196V12.6352V12.6508V12.6665V12.6822V12.6979V12.7137V12.7295V12.7453V12.7612V12.7771V12.7931V12.8091V12.8251V12.8412V12.8572V12.8734V12.8895V12.9057V12.9219V12.9382V12.9545V12.9708V12.9871V13.0035V13.0199V13.0364V13.0529V13.0694V13.0859V13.1025V13.1191V13.1357V13.1524V13.1691V13.1858V13.2026V13.2194V13.2362V13.253V13.2699V13.2868V13.3037V13.3207V13.3377V13.3547V13.3717V13.3888V13.4059V13.423V13.4402V13.4574V13.4746V13.4918V13.5091V13.5264V13.5437V13.561V13.5784V13.5958V13.6132V13.6306V13.6481V13.6656V13.6831V13.7007V13.7182V13.7358V13.7534V13.7711V13.7887V13.8064V13.8241V13.8419V13.8596V13.8774V13.8952V13.913V13.9309V13.9487V13.9666V13.9845V14.0025V14.0204V14.0384V14.0564V14.0744V14.0924V14.1105V14.1286V14.1467V14.1648V14.1829V14.2011V14.2193V14.2375V14.2557V14.2739V14.2921V14.3104V14.3287V14.347V14.3653V14.3837V14.402V14.4204V14.4388V14.4572V14.4756V14.4941V14.5125V14.531V14.5495V14.568V14.5865V14.6051V14.6236V14.6422V14.6607V14.6793V14.698V14.7166V14.7352V14.7539V14.7725V14.7912V14.8099V14.8286V14.8473V14.8661V14.8848V14.9036V14.9223V14.9411V14.9599V14.9787V14.9975V15.0164V15.0352V15.0541V15.0729V15.0918V15.1107V15.1296V15.1485V15.1674V15.1863V15.2052V15.2242V15.2431V15.2621V15.281V15.3V15.319V15.338V15.357V15.376V15.395V15.414V15.4331V15.4521V15.4711V15.4902V15.5093V15.5283V15.5474V15.5665V15.5855V15.6046V15.6237V15.6428V15.6619V15.681V15.7001V15.7193V15.7384V15.7575V15.7766V15.7958V15.8149V15.8341V15.8532V15.8723V15.8915V15.9106V15.9298V15.949V15.9681V15.9873V16.0064V16.0256V16.0448V16.0639V16.0831V16.1023V16.1214V16.1406V16.1598V16.1789V16.1981V16.2173V16.2365V16.2556V16.2748V16.294V16.3131V16.3323V16.3514V16.3706V16.3898V16.4089V16.4281V16.4472V16.4664V16.4855V16.5047V16.5238V16.5429V16.5621V16.5812V16.6003V16.6194V16.6386V16.6577V16.6768V16.6959V16.715V16.7341V16.7532V16.7722V16.7913V16.8104V16.8294V16.8485V16.8676V16.8866V16.9056V16.9247V16.9437V16.9627V16.9817V17.0007V17.0197V17.0387V17.0577V17.0766V17.0956V17.1145V17.1335V17.1524V17.1713V17.1902V17.2091V17.228V17.2469V17.2658V17.2846V17.3035V17.3223V17.3411V17.36V17.3788V17.3975V17.4163V17.4351V17.4539V17.4726V17.4913V17.51V17.5287V17.5474V17.5661V17.5848V17.6034V17.6221V17.6407V17.6593V17.6779V17.6965V17.715V17.7336V17.7521V17.7706V17.7891V17.8076V17.8261V17.8446V17.863V17.8814V17.8998V17.9182V17.9366V17.955V17.9733V17.9916V18.0099V18.0282V18.0465V18.0647V18.0829V18.1011V18.1193V18.1375V18.1557V18.1738V18.1919V18.21V18.2281V18.2461V18.2642V18.2822V18.3002V18.3182V18.3361V18.354V18.3719V18.3898V18.4077V18.4255V18.4434V18.4612V18.4789V18.4967V18.5144V18.5321V18.5498V18.5675V18.5851V18.6027V18.6203V18.6379V18.6554V18.6729V18.6904V18.7079V18.7253V18.7427V18.7601V18.7775V18.7948V18.8121V18.8294V18.8467V18.8639V18.8811V18.8983V18.9154V18.9326V18.9497V18.9667V18.9838V19.0008V19.0178V19.0347V19.0516V19.0685V19.0854V19.1023V19.1191V19.1358V19.1526V19.1693V19.186V19.2027V19.2193V19.2359V19.2525V19.269V19.2855V19.302V19.3184V19.3349V19.3512V19.3676V19.3839V19.4002V19.4164V19.4326V19.4488V19.465V19.4811V19.4972V19.5132V19.5293V19.5452V19.5612V19.5771V19.593V19.6088V19.6246V19.6404V19.6561V19.6718V19.6875V19.7031V19.7187V19.7343V19.7498V19.7653V19.7807V19.7962V19.8115V19.8269V19.8422V19.8574V19.8726V19.8878V19.903V19.9181V19.9331V19.9482V19.9632V19.9781V19.993V19.9995H4.00854H4.02455H4.0406H4.05669H4.07283H4.08902H4.10524H4.12151H4.13782H4.15417H4.17056H4.187H4.20348H4.22H4.23656H4.25315H4.2698H4.28648H4.3032H4.31996H4.33676H4.35359H4.37047H4.38739H4.40434H4.42134H4.43837H4.45543H4.47254H4.48968H4.50686H4.52408H4.54133H4.55862H4.57595H4.59331H4.6107H4.62814H4.6456H4.6631H4.68064H4.69821H4.71581H4.73345H4.75112H4.76883H4.78656H4.80433H4.82214H4.83997H4.85784H4.87574H4.89367H4.91163H4.92962H4.94764H4.96569H4.98378H5.00189H5.02004H5.03821H5.05641H5.07464H5.0929H5.11119H5.12951H5.14785H5.16622H5.18462H5.20305H5.2215H5.23999H5.25849H5.27703H5.29559H5.31417H5.33278H5.35142H5.37008H5.38877H5.40748H5.42621H5.44497H5.46375H5.48256H5.50139H5.52024H5.53912H5.55802H5.57694H5.59588H5.61485H5.63383H5.65284H5.67187H5.69092H5.70999H5.72908H5.74819H5.76732H5.78647H5.80563H5.82482H5.84403H5.86325H5.8825H5.90176H5.92104H5.94034H5.95965H5.97898H5.99833H6.0177H6.03708H6.05648H6.07589H6.09532H6.11476H6.13422H6.1537H6.17319H6.19269H6.21221H6.23174H6.25129H6.27084H6.29042H6.31H6.3296H6.34921H6.36883H6.38846H6.40811H6.42776H6.44743H6.46711H6.4868H6.5065H6.52621H6.54593H6.56566H6.5854H6.60515H6.62491H6.64467H6.66445H6.68423H6.70402H6.72382H6.74362H6.76343H6.78325H6.80308H6.82291H6.84275H6.8626H6.88245H6.9023H6.92216H6.94203H6.9619H6.98178H7.00166H7.02154H7.04143H7.06132H7.08121H7.10111H7.12101H7.14091H7.16082H7.18072H7.20063H7.22054H7.24045H7.26036H7.28028H7.30019H7.3201H7.34002H7.35993H7.37984H7.39975H7.41966H7.43957H7.45948H7.47939H7.49929H7.5192H7.53909H7.55899H7.57889H7.59878H7.61866H7.63855H7.65843H7.6783H7.69817H7.71804H7.7379H7.75776H7.77761H7.79745H7.81729H7.83712H7.85695H7.87677H7.89658H7.91639H7.93619H7.95598H7.97576H7.99553H8.0153H8.03506H8.05481H8.07454H8.09427H8.11399H8.1337H8.1534H8.17309H8.19277H8.21244H8.2321H8.25174H8.27138H8.291H8.31061H8.3302H8.34979H8.36936H8.38892H8.40846H8.428H8.44751H8.46702H8.48651H8.50598H8.52544H8.54489H8.56431H8.58373H8.60313H8.62251H8.64187H8.66122H8.68055H8.69987H8.71917H8.73845H8.75771H8.77695H8.79618H8.81538H8.83457H8.85374H8.87289H8.89202H8.91113H8.93022H8.94929H8.96834H8.98737H9.00637H9.02536H9.04432H9.06327H9.08219H9.10109H9.11996H9.13881H9.15764H9.17645H9.19523H9.21399H9.23273H9.25144H9.27012H9.28879H9.30742H9.32603H9.34462H9.36318H9.38171H9.40022H9.4187H9.43716H9.45558H9.47398H9.49235H9.5107H9.52902H9.5473H9.56556H9.5838H9.602H9.62017H9.63831H9.65643H9.67451H9.69256H9.71059H9.72858H9.74654H9.76447H9.78237H9.80024H9.81807H9.83587H9.85364H9.87138H9.88908H9.90675H9.92439H9.942H9.95957H9.9771H9.9946H10.0121H10.0295H10.0469H10.0643H10.0816H10.0989H10.1161H10.1333H10.1505H10.1677H10.1848H10.2018H10.2189H10.2359H10.2528H10.2697H10.2866H10.3035H10.3203H10.337H10.3537H10.3704H10.3871H10.4037H10.4202H10.4367H10.4532H10.4696H10.486H10.5024H10.5187H10.535H10.5512H10.5674H10.5835H10.5996H10.6157H10.6317H10.6476H10.6636H10.6794H10.6953H10.711H10.7268H10.7425H10.7581H10.7737H10.7893H10.8048H10.8203H10.8357H10.851H10.8664H10.8816H10.8969H10.912H10.9272H10.9422H10.9573H10.9722H10.9872H11.0021H11.0169H11.0317H11.0464H11.0611H11.0757H11.0903H11.1048H11.1193H11.1337H11.1481H11.1624H11.1766H11.1909H11.205H11.2191H11.2332H11.2472H11.2611H11.275H11.2888H11.3026H11.3163H11.33H11.3436H11.3572H11.3707H11.3841H11.3975H11.4108H11.4241H11.4373H11.4504H11.4635H11.4766H11.4896H11.5025H11.5153H11.5281H11.5409H11.5536H11.5662H11.5788H11.5913H11.6037H11.6161H11.6284H11.6407H11.6529H11.665H11.6771H11.6891H11.701H11.7129H11.7247H11.7365H11.7482H11.7598H11.7714H11.7829H11.7943H11.8057H11.817H11.8283H11.8394H11.8505H11.8616H11.8726H11.8835H11.8943H11.9051H11.9158H11.9264H11.937H11.9475H11.958H11.9683H11.9786H11.9889H11.999ZM11.999 21.9995C17.5219 21.9995 21.999 17.5224 21.999 11.9995C21.999 6.47666 17.5219 1.99951 11.999 1.99951C6.47617 1.99951 1.99902 6.47666 1.99902 11.9995V20.7717C1.99902 21.4514 2.54967 21.9995 3.2294 21.9995H11.999ZM7.99902 9.99951C7.99902 9.44723 8.44674 8.99951 8.99902 8.99951H14.999C15.5513 8.99951 15.999 9.44723 15.999 9.99951C15.999 10.5518 15.5513 10.9995 14.999 10.9995H8.99902C8.44674 10.9995 7.99902 10.5518 7.99902 9.99951ZM8.99902 13.9995C8.44674 13.9995 7.99902 14.4472 7.99902 14.9995C7.99902 15.5518 8.44674 15.9995 8.99902 15.9995H11.999C12.5513 15.9995 12.999 15.5518 12.999 14.9995C12.999 14.4472 12.5513 13.9995 11.999 13.9995H8.99902Z" fill="black"/>
</svg>
