<svg width="24" height="24" viewBox="0 0 24 24" fill="none" xmlns="http://www.w3.org/2000/svg">
<path fill-rule="evenodd" clip-rule="evenodd" d="M3.00098 5.00034C1.89641 5.00034 1.00098 5.89577 1.00098 7.00034V9.00034V10.0003V11.0003V15.0003V19.0003C1.00098 20.1049 1.89641 21.0003 3.00098 21.0003H9.00098C10.1055 21.0003 11.001 20.1049 11.001 19.0003V15.0003V11.0003H21.001V21.0003H23.001V11.0003V10.0003V9.00034V7.00034C23.001 5.89577 22.1055 5.00034 21.001 5.00034H3.00098ZM21.001 9.00034V7.00034H3.00098V9.00034H10.001H21.001ZM9.00098 11.0003H3.00098V14.0003H9.00098V11.0003ZM3.00098 16.0003H9.00098V19.0003H3.00098V16.0003Z" fill="black"/>
</svg>
