<svg xmlns="http://www.w3.org/2000/svg" width="32" height="32" viewBox="0 0 32 32" fill="none">
  <path fill-rule="evenodd" clip-rule="evenodd" d="M13.8713 3.72983C15.0445 2.54839 16.9555 2.54839 18.1287 3.72983L26.5478 12.2078C27.478 13.1445 28 14.411 28 15.731V25.0054C28 26.6623 26.6569 28.0054 25 28.0054H7C5.34314 28.0054 4 26.6623 4 25.0054V15.731C4 14.411 4.52201 13.1445 5.45217 12.2078L13.8713 3.72983ZM13 17.4982C13 15.8414 14.3431 14.4982 16 14.4982C17.6569 14.4982 19 15.8414 19 17.4982C19 19.1551 17.6569 20.4982 16 20.4982C14.3431 20.4982 13 19.1551 13 17.4982ZM16 12.4982C13.2386 12.4982 11 14.7368 11 17.4982C11 20.2597 13.2386 22.4982 16 22.4982C18.7614 22.4982 21 20.2597 21 17.4982C21 14.7368 18.7614 12.4982 16 12.4982Z" fill="black"/>
</svg>