<svg width="48" height="48" viewBox="0 0 48 48" fill="none" xmlns="http://www.w3.org/2000/svg">
<rect width="48" height="48" rx="24" fill="url(#paint0_linear_4461_99093)"/>
<path fill-rule="evenodd" clip-rule="evenodd" d="M8.99219 24.0052C8.99219 23.967 8.99233 23.9288 8.99262 23.8906C9.5842 24.4961 10.2847 24.9948 11.0624 25.3548C11.1923 26.5989 11.5013 27.8201 11.9818 28.9801C12.6351 30.5573 13.5926 31.9904 14.7998 33.1976C15.4685 33.8663 16.2066 34.4584 17.0001 34.9647C17 34.9762 17 34.9877 17 34.9992C17 35.8841 17.1642 36.7306 17.4638 37.51C15.9536 36.7799 14.5746 35.8008 13.3856 34.6118C11.9927 33.2189 10.8878 31.5653 10.134 29.7454C9.38017 27.9256 8.99219 25.975 8.99219 24.0052Z" fill="#EAAED8"/>
<path fill-rule="evenodd" clip-rule="evenodd" d="M39.0007 23.8984C38.4087 24.5025 37.708 24.9997 36.9304 25.3585C36.8003 26.6013 36.4915 27.8212 36.0115 28.98C35.3582 30.5572 34.4006 31.9903 33.1934 33.1975C32.5269 33.864 31.7915 34.4544 31.0009 34.9596L31.0011 34.9991C31.0011 35.8822 30.8375 36.7271 30.5391 37.5052C32.0455 36.7757 33.4212 35.7982 34.6077 34.6117C36.0005 33.2188 37.1054 31.5652 37.8592 29.7453C38.6131 27.9254 39.0011 25.9749 39.0011 24.0051C39.0011 23.9695 39.0009 23.934 39.0007 23.8984Z" fill="white"/>
<path fill-rule="evenodd" clip-rule="evenodd" d="M24.0015 11C22.2943 11 20.6038 11.3363 19.0266 11.9896C18.4401 12.2325 17.8736 12.5175 17.3312 12.8417C16.5973 12.4439 15.7843 12.1735 14.9219 12.0601C15.9457 11.2815 17.0677 10.6362 18.2612 10.1418C20.0811 9.38799 22.0316 9 24.0015 9C25.9713 9 27.9218 9.38799 29.7417 10.1418C30.9351 10.6361 32.057 11.2814 33.0808 12.0599C32.2181 12.1731 31.4048 12.4434 30.6707 12.8411C30.1286 12.5171 29.5624 12.2323 28.9764 11.9896C27.3991 11.3363 25.7087 11 24.0015 11Z" fill="#DCC9C6"/>
<circle cx="14" cy="19" r="5" fill="white"/>
<circle cx="34" cy="19" r="5" fill="white"/>
<path d="M29 35C29 37.7614 26.7614 40 24 40C21.2386 40 19 37.7614 19 35C19 32.2386 21.2386 30 24 30C26.7614 30 29 32.2386 29 35Z" fill="white"/>
<defs>
<linearGradient id="paint0_linear_4461_99093" x1="-3.70213" y1="44.069" x2="58.2737" y2="2.3074" gradientUnits="userSpaceOnUse">
<stop offset="0.0844356" stop-color="#361065"/>
<stop offset="0.319648" stop-color="#55288C"/>
<stop offset="0.544324" stop-color="#7248A8"/>
<stop offset="0.778263" stop-color="#A070DE"/>
<stop offset="1" stop-color="#C497FF"/>
</linearGradient>
</defs>
</svg>