<svg width="24" height="24" viewBox="0 0 24 24" fill="none" xmlns="http://www.w3.org/2000/svg">
<mask id="path-1-inside-1_547_75180" fill="white">
<path fill-rule="evenodd" clip-rule="evenodd" d="M10.002 2.00034C8.89739 2.00034 8.00195 2.89577 8.00195 4.00034V8.00034H4.00195C2.89739 8.00033 2.00195 8.89577 2.00195 10.0003V14.0003C2.00195 15.1049 2.89738 16.0003 4.00195 16.0003H8.00195V20.0003C8.00195 21.1049 8.89739 22.0003 10.002 22.0003H14.002C15.1065 22.0003 16.002 21.1049 16.002 20.0003V16.0003H20.002C21.1065 16.0003 22.002 15.1049 22.002 14.0003V10.0003C22.002 8.89577 21.1065 8.00034 20.002 8.00034H16.002V4.00034C16.002 2.89577 15.1065 2.00034 14.002 2.00034H10.002Z"/>
</mask>
<path d="M8.00195 8.00034V10.0003H10.002V8.00034H8.00195ZM4.00195 8.00034L4.00195 10.0003H4.00195V8.00034ZM8.00195 16.0003H10.002V14.0003H8.00195V16.0003ZM16.002 16.0003V14.0003H14.002V16.0003H16.002ZM16.002 8.00034H14.002V10.0003H16.002V8.00034ZM10.002 4.00034V4.00034V0.000335693C7.79282 0.000335693 6.00195 1.7912 6.00195 4.00034H10.002ZM10.002 8.00034V4.00034H6.00195V8.00034H10.002ZM4.00195 10.0003H8.00195V6.00034H4.00195V10.0003ZM4.00195 10.0003L4.00195 10.0003L4.00196 6.00034C1.79282 6.00033 0.00195312 7.79119 0.00195312 10.0003H4.00195ZM4.00195 14.0003V10.0003H0.00195312V14.0003H4.00195ZM4.00195 14.0003H4.00195H0.00195312C0.00195312 16.2095 1.79282 18.0003 4.00195 18.0003V14.0003ZM8.00195 14.0003H4.00195V18.0003H8.00195V14.0003ZM10.002 20.0003V16.0003H6.00195V20.0003H10.002ZM10.002 20.0003H6.00195C6.00195 22.2095 7.79282 24.0003 10.002 24.0003V20.0003ZM14.002 20.0003H10.002V24.0003H14.002V20.0003ZM14.002 20.0003V24.0003C16.2111 24.0003 18.002 22.2095 18.002 20.0003H14.002ZM14.002 16.0003V20.0003H18.002V16.0003H14.002ZM20.002 14.0003H16.002V18.0003H20.002V14.0003ZM20.002 14.0003V18.0003C22.2111 18.0003 24.002 16.2095 24.002 14.0003H20.002ZM20.002 10.0003V14.0003H24.002V10.0003H20.002ZM20.002 10.0003V10.0003H24.002C24.002 7.7912 22.2111 6.00034 20.002 6.00034V10.0003ZM16.002 10.0003H20.002V6.00034H16.002V10.0003ZM14.002 4.00034V8.00034H18.002V4.00034H14.002ZM14.002 4.00034V4.00034H18.002C18.002 1.7912 16.2111 0.000335693 14.002 0.000335693V4.00034ZM10.002 4.00034H14.002V0.000335693H10.002V4.00034Z" fill="black" mask="url(#path-1-inside-1_547_75180)"/>
</svg>
