<svg width="24" height="24" viewBox="0 0 24 24" fill="none" xmlns="http://www.w3.org/2000/svg">
<path fill-rule="evenodd" clip-rule="evenodd" d="M13.971 1.79477C13.1899 1.01372 11.9236 1.01372 11.1426 1.79477L10.1857 2.75165C9.57776 3.35958 9.44301 4.2615 9.78144 4.99976C9.7436 5.03234 9.7067 5.06658 9.67081 5.10246L7.22475 7.54853C7.19922 7.57405 7.17454 7.60009 7.15068 7.62662C6.41494 7.29593 5.52025 7.43271 4.916 8.03696L3.99818 8.95478C3.21714 9.73582 3.21714 11.0022 3.99818 11.7832L7.88727 15.6723C8.47306 16.2581 9.42281 16.2581 10.0086 15.6723L11.6335 14.0474C12.1686 13.5123 12.2149 12.6736 11.7725 12.0859L12.2791 11.5793L20.2914 19.5842C20.6821 19.9746 21.3153 19.9743 21.7056 19.5836C22.096 19.1929 22.0957 18.5597 21.705 18.1694L13.6933 10.1651L14.2436 9.61485C14.8308 10.0501 15.6637 10.0015 16.1961 9.46917L17.8601 7.80518C18.4459 7.21939 18.4459 6.26964 17.8601 5.68386L13.971 1.79477ZM16.0923 6.74452L15.1354 7.7014L11.5999 4.16586L12.5568 3.20898L16.0923 6.74452ZM11.085 6.51667L12.7992 8.23084L10.3687 10.6613L8.65458 8.94711L11.085 6.51667ZM6.33022 9.45117L7.02943 10.1504C7.08796 10.2295 7.15306 10.3053 7.22475 10.377L9.29246 12.4447C9.35466 12.5069 9.42096 12.5625 9.49049 12.6114L9.86575 12.9867L8.94793 13.9045L5.4124 10.369L6.33022 9.45117ZM5.00098 17.0004C3.89641 17.0004 3.00098 17.8958 3.00098 19.0004V20.5004C3.00098 21.3288 3.67255 22.0004 4.50098 22.0004H11.501C12.3294 22.0004 13.001 21.3288 13.001 20.5004V19.0004C13.001 17.8958 12.1055 17.0004 11.001 17.0004H5.00098ZM5.00098 19.0004H11.001V20.0004H5.00098V19.0004Z" fill="black"/>
</svg>
