<svg width="24" height="24" viewBox="0 0 24 24" fill="none" xmlns="http://www.w3.org/2000/svg">
<path fill-rule="evenodd" clip-rule="evenodd" d="M17.6737 5.16383L19.1893 3.72633L17.813 2.27521L16.2974 3.71271L17.6737 5.16383ZM13.0612 5.86374C13.0332 5.79869 12.9502 5.77929 12.8963 5.82518L6.52084 11.2492L8.403 15.6222L16.7249 14.7204C16.7953 14.7127 16.8382 14.6391 16.8102 14.5741L13.0612 5.86374ZM11.6003 4.30188C12.6791 3.38405 14.3383 3.77201 14.8982 5.07305L18.6473 13.7834C19.2072 15.0844 18.3485 16.5561 16.9403 16.7087L10.8457 17.3692L11.6857 19.3208C12.065 20.2018 11.6581 21.2235 10.777 21.6028L9.26579 22.2532C8.3847 22.6324 7.36302 22.2256 6.98379 21.3445L5.81337 18.6252L4.877 19.0282C3.80902 19.4879 2.57061 18.9947 2.11094 17.9268L0.518728 14.2275C0.0590584 13.1595 0.552194 11.9211 1.62018 11.4614L4.7872 10.0983L11.6003 4.30188ZM8.02018 17.6754L8.76539 17.5946L9.74463 19.8697L8.71682 20.3121L7.65044 17.8345L8.02018 17.6754ZM6.44987 16.1739L4.77442 12.2812L2.41087 13.2985C2.35747 13.3215 2.33281 13.3834 2.35579 13.4368L3.94801 17.1361C3.97099 17.1895 4.03291 17.2141 4.08631 17.1911L6.44987 16.1739ZM21.8817 11.0114L20.2098 11.2146L20.4511 13.2L22.1229 12.9968L21.8817 11.0114ZM22.9452 7.56403L19.0572 9.23748L18.2665 7.40041L22.1545 5.72696L22.9452 7.56403Z" fill="black"/>
</svg>
