<svg width="18" height="18" viewBox="0 0 18 18" fill="none" xmlns="http://www.w3.org/2000/svg">
<path fill-rule="evenodd" clip-rule="evenodd" d="M9.67659 1.87883C10.0671 1.48831 10.7003 1.48831 11.0908 1.87883L12.0334 2.82143L15.1754 5.96343L16.118 6.90603C16.5085 7.29656 16.5085 7.92972 16.118 8.32024C15.7275 8.71077 15.0943 8.71077 14.7038 8.32024L14.5087 8.12512L10.5029 12.6021L10.7766 12.8758C11.1671 13.2664 11.1671 13.8995 10.7766 14.29C10.3861 14.6806 9.75292 14.6806 9.36239 14.29L8.41979 13.3474L7.2417 12.1694L3.70711 15.7039C3.31658 16.0945 2.68342 16.0945 2.29289 15.7039C1.90237 15.3134 1.90237 14.6803 2.29289 14.2897L5.82749 10.7551L4.64939 9.57704L3.70679 8.63444C3.31627 8.24392 3.31627 7.61075 3.70679 7.22023C4.09732 6.82971 4.73048 6.82971 5.12101 7.22023L5.39469 7.49392L9.87171 3.48816L9.67659 3.29304C9.28607 2.90252 9.28607 2.26935 9.67659 1.87883ZM11.2881 4.90456L6.81109 8.91031L7.94881 10.048L9.08653 11.1857L13.0923 6.70873L11.2881 4.90456Z" fill="white"/>
</svg>