<svg width="24" height="24" viewBox="0 0 24 24" fill="none" xmlns="http://www.w3.org/2000/svg">
<path fill-rule="evenodd" clip-rule="evenodd" d="M12.8738 3.28508C13.2643 2.89456 13.8975 2.89456 14.288 3.28508L15.4473 4.44434L19.3115 8.30855L20.4707 9.46782C20.8613 9.85834 20.8613 10.4915 20.4707 10.882C20.0802 11.2726 19.447 11.2726 19.0565 10.882L18.6447 10.4702L13.4112 16.3195L13.9016 16.8098C14.2921 17.2003 14.2921 17.8335 13.9016 18.224C13.5111 18.6146 12.8779 18.6146 12.4874 18.224L11.3281 17.0648L9.71668 15.4533L5.20711 19.9629C4.81658 20.3534 4.18342 20.3535 3.79289 19.9629C3.40237 19.5724 3.40237 18.9392 3.79289 18.5487L8.30247 14.0391L6.69105 12.4277L5.53179 11.2685C5.14126 10.8779 5.14126 10.2448 5.53179 9.85424C5.92231 9.46371 6.55548 9.46371 6.946 9.85424L7.43635 10.3446L13.2856 5.11108L12.8738 4.69929C12.4833 4.30877 12.4833 3.6756 12.8738 3.28508ZM14.702 6.52747L8.85275 11.761L10.4238 13.332L11.9948 14.9031L17.2283 9.05385L14.702 6.52747Z" fill="black"/>
</svg>