<svg width="24" height="24" viewBox="0 0 24 24" fill="none" xmlns="http://www.w3.org/2000/svg">
<path fill-rule="evenodd" clip-rule="evenodd" d="M15.2929 10.2929L13 12.5858L13 2C13 1.44772 12.5523 1 12 1C11.4477 1 11 1.44772 11 2L11 12.5858L8.70711 10.2929C8.31658 9.90237 7.68342 9.90237 7.29289 10.2929C6.90237 10.6834 6.90237 11.3166 7.29289 11.7071L11.2929 15.7071L12 16.4142L12.7071 15.7071L16.7071 11.7071C17.0976 11.3166 17.0976 10.6834 16.7071 10.2929C16.3166 9.90237 15.6834 9.90237 15.2929 10.2929ZM6.0576 4.7404C6.46652 4.36918 6.49707 3.73675 6.12584 3.32784C5.75462 2.91892 5.12219 2.88837 4.71328 3.2596C2.43347 5.32929 1 8.35352 1 11.7143C1 17.9205 5.8985 23 12 23C18.1015 23 23 17.9205 23 11.7143C23 8.35352 21.5665 5.32929 19.2867 3.2596C18.8778 2.88837 18.2454 2.91893 17.8742 3.32784C17.5029 3.73675 17.5335 4.36918 17.9424 4.74041C19.8147 6.44014 21 8.93092 21 11.7143C21 16.8694 16.9442 21 12 21C7.0558 21 3 16.8694 3 11.7143C3 8.93092 4.18531 6.44014 6.0576 4.7404Z" fill="black"/>
</svg>
