<svg width="24" height="24" viewBox="0 0 24 24" fill="none" xmlns="http://www.w3.org/2000/svg">
<path d="M12.002 20.0032L11.4548 20.8402L12.002 21.1979L12.5491 20.8402L12.002 20.0032ZM11.002 15.3367C11.002 15.8889 11.4497 16.3367 12.002 16.3367C12.5542 16.3367 13.002 15.8889 13.002 15.3367H11.002ZM22.002 15.6883H21.002H22.002ZM19.6648 17.8076L19.6357 18.8072L19.6648 17.8076ZM22.002 5.94292H23.002H22.002ZM2.00195 15.6883H1.00195H2.00195ZM4.33908 17.8076L4.30997 16.808L4.33908 17.8076ZM2.00195 5.94292H3.00195H2.00195ZM3.00195 15.6883L3.00195 5.94292L1.00195 5.94292L1.00195 15.6883H3.00195ZM21.002 5.94292V15.6883H23.002V5.94292L21.002 5.94292ZM11.002 6.74046L11.002 15.3367H13.002L13.002 6.74046H11.002ZM12.6471 5.97637C9.87745 3.63802 6.96552 2.76253 3.55781 3.05888L3.73109 5.05136C6.61176 4.80084 8.99626 5.51154 11.3568 7.50454L12.6471 5.97637ZM12.5491 19.1662C9.91382 17.4434 7.25877 16.7222 4.30997 16.808L4.36819 18.8072C6.90711 18.7332 9.16017 19.3402 11.4548 20.8402L12.5491 19.1662ZM19.6939 16.808C16.7451 16.7222 14.0901 17.4434 11.4548 19.1662L12.5491 20.8402C14.8437 19.3402 17.0968 18.7332 19.6357 18.8072L19.6939 16.808ZM20.4461 3.05888C17.0384 2.76253 14.1265 3.63802 11.3568 5.97637L12.6471 7.50454C15.0076 5.51154 17.3921 4.80084 20.2728 5.05136L20.4461 3.05888ZM21.002 15.6883C21.002 16.2688 20.4543 16.8302 19.6939 16.808L19.6357 18.8072C21.3387 18.8568 23.002 17.5722 23.002 15.6883H21.002ZM23.002 5.94292C23.002 4.52928 21.9851 3.19273 20.4461 3.05888L20.2728 5.05136C20.6502 5.08419 21.002 5.43289 21.002 5.94292L23.002 5.94292ZM1.00195 15.6883C1.00195 17.5722 2.66519 18.8568 4.36819 18.8072L4.30997 16.808C3.54964 16.8302 3.00195 16.2688 3.00195 15.6883H1.00195ZM3.00195 5.94292C3.00195 5.43289 3.35368 5.08419 3.73109 5.05136L3.55781 3.05888C2.01877 3.19273 1.00195 4.52928 1.00195 5.94292L3.00195 5.94292Z" fill="black"/>
<path d="M5.5 8.5C7 8.5 8 9 9 9.5" stroke="black" stroke-width="2" stroke-linecap="round"/>
<path d="M5.5 12.5C6.5 12.5 7.5 13 7.5 13" stroke="black" stroke-width="2" stroke-linecap="round"/>
</svg>
