<svg width="24" height="24" viewBox="0 0 24 24" fill="none" xmlns="http://www.w3.org/2000/svg">
<path fill-rule="evenodd" clip-rule="evenodd" d="M6.5 4C6.5 2.34315 7.84315 1 9.5 1H14.5C16.1569 1 17.5 2.34315 17.5 4V5H20C22.2091 5 24 6.79086 24 9V19C24 21.2091 22.2091 23 20 23H4C1.79086 23 0 21.2091 0 19V9C0 6.79086 1.79086 5 4 5H6.5V4ZM15.5 4V5H8.5V4C8.5 3.44772 8.94772 3 9.5 3H14.5C15.0523 3 15.5 3.44772 15.5 4ZM4 7C2.89543 7 2 7.89543 2 9V19C2 20.1046 2.89543 21 4 21H6.5V7H4ZM8.5 7V10.1986L10.2968 9.13869L11.192 8.61061L11.6852 9.52555L13.8803 13.5983L14.3383 14.448L13.5052 14.9357L8.50524 17.863L8.5 17.866V21H15.5V7H8.5ZM17.5 7V21H20C21.1046 21 22 20.1046 22 19V9C22 7.89543 21.1046 7 20 7H17.5ZM8.5 15.5485V12.5206L8.50807 12.5159L10.4177 11.3894L11.6617 13.6974L8.5 15.5485Z" fill="black"/>
</svg>
