<svg width="24" height="24" viewBox="0 0 24 24" fill="none" xmlns="http://www.w3.org/2000/svg">
<path fill-rule="evenodd" clip-rule="evenodd" d="M16 4L18.0011 4C19.6587 4 21 5.34388 21 7C21 7.8885 20.6137 8.68679 20 9.23611V20C20 21.6559 18.6593 23 17.0015 23H6.99699C5.33817 23 4 21.6549 4 20L4 9.23611C3.38625 8.68679 3 7.8885 3 7C3 5.34443 4.33989 4 5.99803 4H8C8 2.34315 9.34315 1 11 1H12H13C14.6569 1 16 2.34315 16 4ZM10 4L14 4C14 3.44772 13.5523 3 13 3H12L11 3C10.4477 3 10 3.44771 10 4ZM6 20L6 10H18L18 20C18 20.5532 17.5528 21 17.0015 21H6.99699C6.44667 21 6 20.5543 6 20ZM5 7C5 7.55229 5.44772 8 6 8H18C18.5523 8 19 7.55229 19 7C19 6.44698 18.5527 6 18.0011 6H5.99803C5.44703 6 5 6.44643 5 7ZM11 13.5C11 12.9477 10.5523 12.5 10 12.5C9.44771 12.5 9 12.9477 9 13.5L9 17C9 17.5523 9.44772 18 10 18C10.5523 18 11 17.5523 11 17L11 13.5ZM14 12.5C14.5523 12.5 15 12.9477 15 13.5V17C15 17.5523 14.5523 18 14 18C13.4477 18 13 17.5523 13 17V13.5C13 12.9477 13.4477 12.5 14 12.5Z" fill="black"/>
</svg>